
<svg
  xmlns="http://www.w3.org/2000/svg"
  width="60.682896mm"
  height="18.372667mm"
  viewBox="0 0 60.682896 18.372667"
  version="1.1"
  id="svg3733"
>
  <defs
    id="defs3727" />
  <g
    id="layer1"
    transform="translate(-1.4085411,0.20419087)">
    <g
      style="font-style:normal;font-weight:normal;font-size:19.75555611px;line-height:1.25;font-family:sans-serif;letter-spacing:0px;word-spacing:0px;fill:#000000;fill-opacity:1;stroke:none;stroke-width:0.26458332"
      id="text3715">
      <path
        d="M 4.2335856,14.039565 L 5.6362301,6.5324538 H 7.5327635 L 7.9476302,4.3790982 H 6.0313412 L 6.130119,3.9049648 c 0.1778,-0.9680222 0.7507111,-1.778 1.6594667,-1.778 c 0.3753556,0 0.6716889,0.059267 0.9285111,0.1778 L 9.2119857,0.03287581 C 8.8958968,-0.10541309 8.3822524,-0.20419087 7.6908079,-0.20419087 c -0.9482667,0 -1.9755556,0.25682223 -2.7460223,0.92851114 C 3.9767634,1.5342981 3.5223856,2.739387 3.32483,3.8654537 l -0.098778,0.5136445 h -1.2446 L 1.5665855,6.5324538 H 2.8111856 L 1.4085411,14.039565 Z"
        style="font-style:italic;font-variant:normal;font-weight:bold;font-stretch:normal;font-family:'Myriad Pro';-inkscape-font-specification:'Myriad Pro Bold Italic';letter-spacing:-0.52916676px;stroke-width:0.26458332;fill:#e9f5fe;fill-opacity:1"
        id="path3743" />
      <path
        d="m 6.6899772,13.48641 c 0.5729111,0.434622 1.7384889,0.750711 2.9633334,0.750711 c 2.5484664,0 4.4252444,-1.185334 4.4252444,-3.397956 c 0,-1.3433778 -1.106311,-2.1138445 -2.153355,-2.6472445 c -0.790223,-0.3753556 -1.185334,-0.7112 -1.185334,-1.1063112 c 0,-0.5136444 0.513645,-0.8494889 1.264356,-0.8494889 c 0.849489,0 1.521178,0.2370667 1.936044,0.4346223 L 14.611955,4.6556759 C 14.137822,4.3790982 13.248822,4.161787 12.122755,4.161787 c -2.4892,0 -4.2474445,1.3236223 -4.2474445,3.3189335 c 0,1.2050889 0.9285112,2.0150667 2.0545779,2.5682225 c 0.8889996,0.434622 1.2050886,0.770466 1.2050886,1.2446 c 0,0.474133 -0.414866,0.869244 -1.2248442,0.869244 c -0.9285111,0 -1.9755556,-0.395111 -2.5287112,-0.671689 z"
        style="font-style:italic;font-variant:normal;font-weight:bold;font-stretch:normal;font-family:'Myriad Pro';-inkscape-font-specification:'Myriad Pro Bold Italic';letter-spacing:-0.52916676px;stroke-width:0.26458332;fill:#e9f5fe;fill-opacity:1"
        id="path3745" />
      <path
        d="m 16.299952,4.3790982 l -1.778,9.4629118 c -0.316089,1.738488 -0.869244,2.074333 -1.521178,2.074333 c -0.256822,0 -0.434622,-0.01976 -0.632177,-0.05927 l -0.335845,2.153356 c 0.454378,0.118533 0.928511,0.158044 1.363134,0.158044 c 1.007533,0 2.015066,-0.316089 2.647244,-1.027289 c 0.632178,-0.7112 1.047044,-1.778 1.343378,-3.437466 l 1.758244,-9.3246228 z m 1.698978,-1.205089 c 0.908756,0 1.679222,-0.5926667 1.679222,-1.6002 c 0,-0.84948893 -0.592666,-1.4026445 -1.4224,-1.4026445 c -0.889,0 -1.639711,0.65193335 -1.639711,1.6199556 c 0,0.8494889 0.572911,1.3828889 1.382889,1.3828889 z"
        style="font-style:italic;font-variant:normal;font-weight:bold;font-stretch:normal;font-family:'Myriad Pro';-inkscape-font-specification:'Myriad Pro Bold Italic';letter-spacing:-0.52916676px;fill:#a4d3f8;fill-opacity:1;stroke-width:0.26458332"
        id="path3747"
         />
      <path
        d="m 18.232426,13.48641 c 0.572911,0.434622 1.738489,0.750711 2.963333,0.750711 c 2.548467,0 4.425245,-1.185334 4.425245,-3.397956 c 0,-1.3433778 -1.106312,-2.1138445 -2.153356,-2.6472445 c -0.790222,-0.3753556 -1.185333,-0.7112 -1.185333,-1.1063112 c 0,-0.5136444 0.513644,-0.8494889 1.264355,-0.8494889 c 0.849489,0 1.521178,0.2370667 1.936045,0.4346223 L 26.154404,4.6556759 C 25.68027,4.3790982 24.79127,4.161787 23.665203,4.161787 c -2.4892,0 -4.247444,1.3236223 -4.247444,3.3189335 c 0,1.2050889 0.928511,2.0150667 2.054578,2.5682225 c 0.889,0.434622 1.205089,0.770466 1.205089,1.2446 c 0,0.474133 -0.414867,0.869244 -1.224845,0.869244 c -0.928511,0 -1.975555,-0.395111 -2.528711,-0.671689 z"
        style="font-style:italic;font-variant:normal;font-weight:bold;font-stretch:normal;font-family:'Myriad Pro';-inkscape-font-specification:'Myriad Pro Bold Italic';letter-spacing:-0.52916676px;fill:#a4d3f8;fill-opacity:1;stroke-width:0.26458332"
        id="path3749"
         />
      <path
        d="m 27.763775,14.237121 c 1.126066,0 1.9558,-0.809978 1.9558,-1.975556 c 0,-0.987778 -0.671689,-1.679222 -1.639712,-1.679222 c -1.145822,0 -1.916288,0.928511 -1.916288,2.015066 c 0,0.948267 0.632177,1.639712 1.6002,1.639712 z"
        style="font-style:italic;font-variant:normal;font-weight:bold;font-stretch:normal;font-family:'Myriad Pro';-inkscape-font-specification:'Myriad Pro Bold Italic';letter-spacing:-0.52916676px;fill:#64b2f2;fill-opacity:1;stroke-width:0.26458332"
        id="path3751"
         />
      <path
        d="M 38.633167,0.01312025 L 37.803433,4.3790982 C 37.388567,4.2210537 36.874922,4.161787 36.479811,4.161787 c -3.654778,0 -6.084711,3.0818668 -6.084711,6.440311 c 0,2.350912 1.363133,3.654778 3.002844,3.654778 c 1.126067,0 2.3114,-0.493889 3.160889,-1.778 h 0.03951 l -0.138289,1.560689 h 2.607734 c 0.03951,-1.145822 0.217311,-2.508956 0.454378,-3.753556 l 1.9558,-10.27288875 z M 36.894678,9.2587205 c -0.375356,1.8372665 -1.382889,2.7065115 -2.192867,2.7065115 c -0.829733,0 -1.343378,-0.651934 -1.343378,-1.817511 c 0,-1.8570227 1.205089,-3.8325784 2.904067,-3.8325784 c 0.474133,0 0.908755,0.1580445 1.126067,0.3358445 z"
        style="font-style:italic;font-variant:normal;font-weight:bold;font-stretch:normal;font-family:'Myriad Pro';-inkscape-font-specification:'Myriad Pro Bold Italic';letter-spacing:-0.52916676px;fill:#64b2f2;fill-opacity:1;stroke-width:0.26458332"
        id="path3753"
         />
      <path
        d="m 48.036326,11.431832 c -0.770467,0.375355 -1.659467,0.612422 -2.706511,0.612422 c -0.829734,0 -1.481667,-0.256822 -1.857023,-0.750711 c -0.197555,-0.276578 -0.296333,-0.7112 -0.296333,-0.987778 c 3.872089,0.09878 6.262511,-0.7902223 6.262511,-3.2596668 c 0,-1.7977556 -1.402644,-2.8843112 -3.358444,-2.8843112 c -3.496734,0 -5.630334,3.0621112 -5.630334,6.005689 c 0,2.508956 1.4224,4.069645 4.188178,4.069645 c 1.0668,0 2.469445,-0.1778 3.595511,-0.750711 z M 46.77197,7.0658538 c 0,0.8692444 -1.106311,1.1853333 -3.318933,1.1655778 C 43.650592,7.322676 44.401303,6.2361204 45.724926,6.2361204 c 0.651933,0 1.047044,0.3358445 1.047044,0.8297334 z"
        style="font-style:italic;font-variant:normal;font-weight:bold;font-stretch:normal;font-family:'Myriad Pro';-inkscape-font-specification:'Myriad Pro Bold Italic';letter-spacing:-0.52916676px;fill:#64b2f2;fill-opacity:1;stroke-width:0.26458332"
        id="path3755" />
      <path
        d="m 50.057479,4.3790982 l 1.639711,9.6604668 h 2.884311 l 5.393267,-9.6604668 h -3.180644 l -1.9558,4.2474445 c -0.513645,1.1853334 -0.829734,1.9162893 -1.0668,2.6077333 h -0.07902 C 53.652994,10.523076 53.53446,9.7921205 53.435682,8.6067872 L 53.00106,4.3790982 Z"
        style="font-style:italic;font-variant:normal;font-weight:bold;font-stretch:normal;font-family:'Myriad Pro';-inkscape-font-specification:'Myriad Pro Bold Italic';letter-spacing:-0.52916676px;fill:#64b2f2;fill-opacity:1;stroke-width:0.26458332"
        id="path3757" />
    </g>
  </g>
</svg>
